<svg xmlns="http://www.w3.org/2000/svg" version="1.1" xmlns:xlink="http://www.w3.org/1999/xlink" xmlns:svgjs="http://svgjs.dev/svgjs" width="1000" height="1000" viewBox="0 0 1000 1000"><rect width="1000" height="1000" fill="#ffffff"></rect><g transform="matrix(0.7,0,0,0.7,150.0000000000001,106.25)"><svg viewBox="0 0 320 360" data-background-color="#fdfbe2" preserveAspectRatio="xMidYMid meet" height="1125" width="1000" xmlns="http://www.w3.org/2000/svg" xmlns:xlink="http://www.w3.org/1999/xlink"><g id="tight-bounds" transform="matrix(1,0,0,1,0,0)"><svg viewBox="0 0 320 360" height="360" width="320"><g><svg></svg></g><g><svg viewBox="0 0 320 360" height="360" width="320"><g><path xmlns="http://www.w3.org/2000/svg" d="M20.961 227.22l3.726 4.658-1.863-6.056c-0.466-2.795-3.726 0.466-1.863 1.398M25.153 224.425c1.397 2.329 2.795 4.658 2.795 6.987 0 3.261 2.795 4.658 5.123 5.589-3.261-3.726-5.124-13.974-7.918-12.576M204.017 26.929c7.918 0 15.371-0.932 23.756 0.931 20.495 5.124 37.729 15.371 49.374 29.811l32.606 52.169c1.397 13.042 4.192 27.482 3.726 43.319 3.261 0 2.795-4.658 6.521-5.59-3.726 9.316-5.59 20.961-6.521 34.469-2.329-7.453 0-18.632 0.466-24.687-3.261 5.124-5.124 1.397-5.124-0.932 0.466-3.726-1.397-3.261-2.795-4.658-5.124-4.658-8.384-9.782-12.11-17.7 2.329-6.055 2.795-14.905-4.658-19.563-2.329-1.397-5.124-3.726-6.521-7.453-1.863-5.124-5.124-11.179-4.193-19.097 0.466-2.329-6.987 5.124-11.179 1.863-18.166-12.576-36.332-27.016-58.224-39.127-11.645 0-20.029-4.192-24.221-9.316-3.726-4.658-0.932-10.713 4.658-11.179 3.261 0 6.987-0.932 9.782 0.932 0.466-1.863 2.329-4.192 4.657-4.192M157.904 16.215l0.932 0.466c4.658 0.932 6.987 7.453 12.11 5.124 0 3.261 0.466 6.521-0.466 8.85-1.397 3.726-5.59 3.726-8.85 3.726-31.208-1.863-49.374 11.179-68.471 22.358-5.124 3.261-10.713 5.59-14.906 9.782-20.029 18.632-41.921 35.866-47.045 70.335l-4.192 38.195c-0.466 4.192-5.124 8.384-4.192 13.508l3.26 22.824c-3.261-3.261-5.124 0.932-4.192 2.795 0.466 1.397 2.329 6.055 5.124 1.863 3.726 6.987 7.453 20.495 12.576 26.55 15.837 18.632 36.332 35.4 53.101 52.169 4.192-0.932 7.453-0.932 8.384-3.727 1.397 2.795-1.397 5.59-3.726 6.056 7.453 4.658 15.837 8.85 27.016 9.781 14.44 0.932 27.948 3.261 40.524 6.522 6.521-1.863 13.042-2.795 20.029-3.261 2.329 0 3.726-3.726 6.521-4.658l0.466-4.658c2.795 4.192 2.329-1.397 0.466-4.192 3.261 2.795 4.192 5.124 5.589 6.987 0-1.397 3.726-6.521 3.727-0.466l0.931-6.055c1.397-0.932 1.863 5.124 3.261 0.931 1.397-4.192 4.192-0.932 6.987-2.329-0.932 1.863-0.466 5.59 2.794 3.261l3.727-3.261c2.329 5.59 6.055 3.261 7.918 2.329 20.495-13.042 40.99-28.413 60.553-43.784l-0.466 6.055 2.329-7.453c2.329 2.329 4.192 0.466 5.124-0.931 2.795-4.658 6.521-9.316 12.577-13.508-7.453 20.029-16.303 35.866-27.482 48.908l-4.658 5.59c0 3.261-0.932 7.453-4.658 7.918-1.863 0.466-5.59-0.932-8.384 1.863-1.397 1.863 3.261 5.59-0.466 2.795-3.261-2.329-6.521 0-10.248 0.932-2.795 0.932 1.863 3.726 2.795 5.589 0.932 1.863 1.863 3.726 1.398 6.056l-5.124-5.59c-6.055 3.261-9.782 9.316-14.906 13.974-2.329 1.863-1.397 5.124-1.397 7.918-3.261 0-6.987-0.932-8.85 0.932-1.397 1.863-0.932 4.658-0.932 7.453-4.658-0.466-5.124-7.453-9.315-6.056-4.192 0.932-8.85 1.397-12.577 3.727 2.795 5.59-4.658 2.329-3.726 3.26-6.987-4.192-13.042-7.453-20.495-4.658-15.837-5.124-35.4-2.795-49.84-0.931 0-2.329 0.466-4.658-0.466-5.124-0.932 2.329-3.726 1.397-3.26 1.397-8.85-6.055-17.7-9.782-27.016-14.905-8.384 0.932-16.303-3.261-18.632-5.59-6.521-6.055-13.974-2.795-20.029-4.192-13.042-3.261-17.7-16.769-19.098-26.084-0.932-4.658-4.658-6.521-6.055-6.056-6.055-19.563-15.371-37.263-22.824-55.429-1.863-4.658-1.397-9.316-1.397-14.44 2.329 0.932 4.658 0.466 4.192-2.794-2.329-15.371-7.918-27.016-13.974-38.195 3.261-15.837 3.726-34.469 11.179-48.443 6.521-12.576 18.632-19.098 27.016-29.811 2.795-3.726 2.795-8.85 5.59-12.11 9.316-9.316 18.632-19.098 28.879-27.482 4.658-3.726 10.247 0 17.234-1.397 2.329-8.384 11.645-15.837 20.495-13.508 3.726 0.932 11.179-8.85 13.508-9.782 3.726-1.397 1.863 3.726 1.863 6.987 8.85-6.987 20.961-10.713 32.14-14.906" fill="#000000" fill-rule="nonzero" stroke="none" stroke-width="1" stroke-linecap="butt" stroke-linejoin="miter" stroke-miterlimit="10" stroke-dasharray="" stroke-dashoffset="0" font-family="none" font-weight="none" font-size="none" text-anchor="none" style="mix-blend-mode: normal" data-fill-palette-color="tertiary"></path></g><g transform="matrix(1,0,0,1,122.65876305619933,90)"><svg viewBox="0 0 74.68247388760133 180" height="180" width="74.68247388760133"><g><svg viewBox="0 0 74.68247388760133 180" height="180" width="74.68247388760133"><g><svg viewBox="0 0 170.92524391691398 411.96471278319996" height="180" width="74.68247388760133"><g transform="matrix(1,0,0,1,0,148.4630509925378)"><svg viewBox="0 0 170.92524391691398 263.5016617906622" height="263.5016617906622" width="170.92524391691398"><g id="textblocktransform"><svg viewBox="0 0 170.92524391691398 263.5016617906622" height="263.5016617906622" width="170.92524391691398" id="textblock"><g><svg viewBox="0 0 170.92524391691398 178.88760000000002" height="178.88760000000002" width="170.92524391691398"><g transform="matrix(1,0,0,1,0,0)"><svg width="170.92524391691398" viewBox="1.149999976158142 -33.70000076293945 32.19999694824219 33.70000076293945" height="178.88760000000002" data-palette-color="#454545"><path d="M13.45-14.3L13.45-14.3 13.1-13.1 21.2-13.1 20.85-14.3Q19.4-19.2 18.48-22.65 17.55-26.1 17.35-27.1L17.35-27.1 17.15-28.1Q16.75-25.35 13.45-14.3ZM11.25-6.9L9.2 0 1.15 0 12.4-33.7 22.1-33.7 33.35 0 25.1 0 23.05-6.9 11.25-6.9Z" opacity="1" transform="matrix(1,0,0,1,0,0)" fill="#000000" class="wordmark-text-0" data-fill-palette-color="primary" id="text-0"></path></svg></g></svg></g><g transform="matrix(1,0,0,1,0,204.99159414240003)"><svg viewBox="0 0 170.92524391691398 58.510067648262165" height="58.510067648262165" width="170.92524391691398"><g transform="matrix(1,0,0,1,0,0)"><svg width="170.92524391691398" viewBox="0.25 -31.950000762939453 94.63999938964844 32.400001525878906" height="58.510067648262165" data-palette-color="#454545"><path d="M37.2-30.6L37.2-31.5 44-31.5 44-30.6 42.15-30.6Q41.45-30.6 41.2-29.9L41.2-29.9 31.95 0 30.25 0 22.1-24.9 14 0 12.3 0 3.05-29.9Q2.8-30.6 2.1-30.6L2.1-30.6 0.25-30.6 0.25-31.5 9.75-31.5 9.75-30.6 7.25-30.6 14.4-6.45 21.25-27.55 20.5-29.9Q20.25-30.6 19.55-30.6L19.55-30.6 17.7-30.6 17.7-31.5 27.2-31.5 27.2-30.6 24.7-30.6 32.25-6.6 39.7-30.6 37.2-30.6ZM62.55 0L46 0 46-0.9 48.35-0.9Q49.05-0.9 49.05-1.6L49.05-1.6 49.05-30Q49.05-30.6 48.35-30.6L48.35-30.6 46-30.6 46-31.5 61.85-31.5Q65.8-31.5 67.4-31.95L67.4-31.95Q66.95-29.9 66.95-26.25L66.95-26.25 66.95-23.9 65.8-23.9 65.05-29Q64.95-30.1 63.65-30.1L63.65-30.1 53.15-30.1 53.15-16.45 63.2-16.45Q63.8-16.45 63.9-17.15L63.9-17.15 64.15-20.25 65.05-20.25 65.05-11.25 64.15-11.25 63.9-14.35Q63.8-15.05 63.2-15.05L63.2-15.05 53.15-15.05 53.15-1.4 64.35-1.4Q65.65-1.4 65.75-2.5L65.75-2.5 66.5-8.35 67.65-8.35 67.65-6Q67.65-1.6 68.1 0.45L68.1 0.45Q66.5 0 62.55 0L62.55 0ZM84.8 0L71.84 0 71.84-0.9 74.19-0.9Q74.89-0.9 74.89-1.5L74.89-1.5 74.89-30Q74.89-30.6 74.19-30.6L74.19-30.6 71.84-30.6 71.84-31.5 83.55-31.5Q87.3-31.5 89.97-29.45 92.64-27.4 92.64-24.15L92.64-24.15Q92.64-21.65 91.32-19.78 90-17.9 87.8-16.95L87.8-16.95Q90.94-16.25 92.92-14.1 94.89-11.95 94.89-8.38 94.89-4.8 91.94-2.4 89 0 84.8 0L84.8 0ZM84.55-16.05L84.55-16.05 79-16.05 79-1.4 84.55-1.4Q87.55-1.4 89.22-3.6 90.89-5.8 90.89-8.75 90.89-11.7 89.22-13.88 87.55-16.05 84.55-16.05ZM82.5-30.1L82.5-30.1 79-30.1 79-17.3 82.8-17.3Q85.75-17.3 87.19-19.3 88.64-21.3 88.64-23.98 88.64-26.65 87.14-28.38 85.64-30.1 82.5-30.1Z" opacity="1" transform="matrix(1,0,0,1,0,0)" fill="#000000" class="slogan-text-1" data-fill-palette-color="secondary" id="text-1"></path></svg></g></svg></g></svg></g></svg></g><g transform="matrix(1,0,0,1,32.646721588130575,0)"><svg viewBox="0 0 105.63180074065284 122.35905685013779" height="122.35905685013779" width="105.63180074065284"><g><svg xmlns="http://www.w3.org/2000/svg" xmlns:xlink="http://www.w3.org/1999/xlink" version="1.1" x="0" y="0" viewBox="9.63800048828125 3.246999979019165 80.7239990234375 93.50699615478516" enable-background="new 0 0 100 100" xml:space="preserve" height="122.35905685013779" width="105.63180074065284" class="icon-icon-0" data-fill-palette-color="accent" id="icon-0"><g fill="#454545" data-fill-palette-color="accent"><g fill="#454545" data-fill-palette-color="accent"><polygon points="36.703,11.011 9.638,26.636 9.638,38.757 36.703,23.131 63.767,38.757 63.767,26.636   " fill="#000000" data-fill-palette-color="accent"></polygon></g><g fill="#454545" data-fill-palette-color="accent"><polygon points="63.298,89.092 36.233,73.467 36.233,61.348 63.298,76.973 90.362,61.348 90.362,73.467   " fill="#000000" data-fill-palette-color="accent"></polygon></g><g fill="#454545" data-fill-palette-color="accent"><polygon points="9.638,42.012 36.703,26.386 47.198,32.446 20.134,48.072 20.134,79.324 9.638,73.264   " fill="#000000" data-fill-palette-color="accent"></polygon></g><g fill="#454545" data-fill-palette-color="accent"><polygon points="77.083,18.872 50.018,3.247 39.522,9.307 66.586,24.932 66.586,56.184 77.083,50.124   " fill="#000000" data-fill-palette-color="accent"></polygon></g><g fill="#454545" data-fill-palette-color="accent"><polygon points="23.01,81.127 23.011,49.876 33.507,43.816 33.507,75.068 60.571,90.693 50.075,96.754   " fill="#000000" data-fill-palette-color="accent"></polygon></g><g fill="#454545" data-fill-palette-color="accent"><polygon points="90.362,58.092 90.362,26.84 79.866,20.78 79.866,52.031 52.802,67.658 63.298,73.719   " fill="#000000" data-fill-palette-color="accent"></polygon></g></g></svg></g></svg></g><g></g></svg></g></svg></g></svg></g></svg></g><defs></defs></svg><rect width="320" height="360" fill="none" stroke="none" visibility="hidden"></rect></g></svg></g></svg>